<svg version="1.1" id="Layer_1" xmlns="http://www.w3.org/2000/svg" xmlns:xlink="http://www.w3.org/1999/xlink" x="0px" y="0px"
	 width="300" height="200" viewBox="0 0 800 592" enable-background="new 0 0 800 592" xml:space="preserve">
<path fill="white" opacity="1.000000" stroke="none" 
	d="
M458.790222,308.353546 
	C458.842865,300.763397 458.776520,293.605530 458.929108,286.452362 
	C459.011322,282.597137 459.263245,278.831085 455.083557,277.186920 
	C454.981567,275.783417 455.464478,275.018799 456.364899,274.964783 
	C462.668335,274.586700 469.065704,273.899994 475.253937,275.185425 
	C483.724915,276.945007 486.444855,285.846527 480.868774,292.692780 
	C479.324371,294.588989 477.319946,296.110504 475.262360,298.053467 
	C479.235107,303.568207 480.735016,310.570343 487.654572,313.393829 
	C488.441772,313.715027 489.080414,314.279694 488.969574,315.272461 
	C488.836975,316.459869 487.993195,316.957428 486.952362,317.131775 
	C483.274414,317.748016 479.914276,317.335907 477.776947,313.796356 
	C475.542389,310.095612 473.417175,306.329010 471.219635,302.605621 
	C470.308228,301.061371 469.648621,299.094788 467.284241,299.402466 
	C464.622742,299.748779 465.141815,301.972382 464.983337,303.685638 
	C464.641663,307.378937 463.282288,311.222382 468.310577,313.431671 
	C470.018280,314.181976 468.763428,316.340057 466.940918,316.348602 
	C462.707306,316.368469 458.412415,316.905151 454.102966,315.861023 
	C453.744324,311.982635 459.445374,312.504395 458.790222,308.353546 
M477.131744,284.326935 
	C476.790680,283.574860 476.569214,282.733978 476.088043,282.085938 
	C473.909454,279.151794 470.767456,277.797333 467.379883,278.661774 
	C464.044952,279.512756 465.695374,282.822754 465.347961,285.085846 
	C465.148834,286.382690 465.184906,287.741028 465.302246,289.054993 
	C465.468201,290.913361 464.331696,293.425995 466.779877,294.338837 
	C469.344299,295.295013 472.049835,294.961060 474.227509,292.982574 
	C476.561127,290.862366 477.785675,288.260895 477.131744,284.326935 
z"/>
<path fill="white" opacity="1.000000" stroke="none" 
	d="
M419.718750,287.155273 
	C428.437561,284.171387 434.042572,288.504730 433.042969,297.286621 
	C432.627563,300.935730 432.286102,304.559723 432.277008,308.228088 
	C432.271698,310.363739 432.683838,311.946686 434.939545,313.033752 
	C436.787781,313.924438 436.553406,315.916229 434.466370,316.073059 
	C430.797668,316.348694 427.070862,317.416412 422.184967,316.283691 
	C428.614563,310.651642 426.438110,303.802826 426.743561,297.422546 
	C426.896149,294.236389 425.701050,291.638641 422.151337,291.481842 
	C418.769348,291.332428 415.925354,292.560394 415.051483,296.366699 
	C414.031616,300.808960 414.347076,305.315002 414.393524,309.806854 
	C414.409119,311.314667 415.184875,312.298462 416.662170,312.705017 
	C417.743195,313.002411 418.455963,313.609558 418.204254,314.842346 
	C417.952545,316.075165 416.936249,316.311249 415.917694,316.324005 
	C412.642395,316.365173 409.366272,316.339325 405.648560,316.339325 
	C409.786011,307.040649 410.930878,298.045380 405.284027,288.467010 
	C408.414581,287.540466 411.393738,283.867523 415.434692,288.062714 
	C416.922028,289.606781 418.055054,287.534454 419.718750,287.155273 
z"/>
<path fill="white" opacity="1.000000" stroke="none" 
	d="
M326.819946,304.579712 
	C326.824066,302.802765 326.825043,301.469757 326.822449,300.136719 
	C326.809296,293.393280 326.808990,293.393280 322.952820,289.365967 
	C325.655640,286.846222 325.729462,286.822327 332.532837,286.332245 
	C334.087982,289.434601 333.076630,292.729919 332.939819,295.945923 
	C332.826874,298.601471 332.410614,301.248108 332.372772,303.902161 
	C332.270660,311.070282 332.322327,311.071014 338.934723,311.397156 
	C337.188629,317.278076 333.095673,318.999359 328.894653,315.197540 
	C326.832886,313.331665 325.608307,313.941193 323.731995,314.989471 
	C315.272614,319.715668 309.719452,316.501038 309.685669,306.934814 
	C309.676239,304.268951 309.717377,301.602814 309.740479,298.936859 
	C309.791351,293.069275 309.792694,293.069275 306.260651,289.159821 
	C308.943146,286.421753 312.522552,286.838135 316.335388,285.939331 
	C316.607666,292.454254 314.770233,298.476532 315.287079,304.588989 
	C315.558502,307.799164 315.179077,311.575531 319.692230,311.508881 
	C323.521698,311.452393 326.973938,309.955566 326.819946,304.579712 
z"/>
<path fill="white" opacity="1.000000" stroke="none" 
	d="
M396.001862,304.425018 
	C395.012207,311.176239 395.012207,311.176239 401.730835,311.493622 
	C400.156830,317.974915 396.315796,318.753815 390.056396,313.648865 
	C388.750580,314.467712 387.424957,315.440399 385.979370,316.177856 
	C382.254059,318.078247 377.601257,316.076141 375.798462,311.884796 
	C374.024658,307.760895 375.463074,304.301483 379.757080,302.755371 
	C382.093536,301.914124 384.518860,301.309509 386.922943,300.669006 
	C389.493591,299.984070 391.187347,298.677643 390.473328,295.725800 
	C389.762299,292.786407 388.006927,291.195129 384.774475,291.307037 
	C382.224213,291.395355 380.377808,293.707397 377.824707,293.398224 
	C376.635529,292.420502 376.537201,291.310760 377.330658,290.252380 
	C379.504608,287.352722 387.584167,285.217896 391.091797,286.448120 
	C396.026215,288.178802 396.632538,292.093262 396.369110,296.523895 
	C396.221222,299.010895 396.156952,301.502869 396.001862,304.425018 
M386.632996,304.513977 
	C385.843109,304.768677 385.059570,305.045410 384.262115,305.273773 
	C382.267151,305.845154 380.704865,306.974426 381.681366,309.178253 
	C382.717621,311.517029 384.708038,312.033936 387.066772,310.732849 
	C388.586334,309.894653 389.782471,308.815918 390.292053,307.122894 
	C391.173279,304.195007 390.016815,303.430634 386.632996,304.513977 
z"/>
<path fill="white" opacity="1.000000" stroke="none" 
	d="
M516.061646,295.976257 
	C515.604553,299.240356 513.812988,300.235382 511.101318,300.189240 
	C507.772705,300.132568 504.440582,300.271912 501.112427,300.204346 
	C497.505585,300.131104 496.830048,301.839813 497.832306,304.968079 
	C499.587830,310.447357 503.644531,312.741760 509.529480,311.419342 
	C511.227020,311.037842 512.840515,309.605835 514.677795,311.007843 
	C513.640991,315.288422 507.373932,318.208252 501.932129,316.975128 
	C493.435852,315.049805 489.100403,305.939423 492.293549,296.635284 
	C493.577362,292.894531 495.865570,289.921173 499.239899,287.776886 
	C505.800934,283.607544 515.975342,285.761566 516.061646,295.976257 
M499.447174,296.555298 
	C501.749542,296.331543 504.052368,296.112061 506.354126,295.882294 
	C507.518005,295.766144 508.849701,295.700165 509.198578,294.351715 
	C509.570465,292.914246 508.761688,291.702515 507.573029,291.010773 
	C505.552460,289.834930 503.338531,289.947968 501.449188,291.191956 
	C499.665588,292.366394 497.419037,293.590332 499.447174,296.555298 
z"/>
<path fill="white" opacity="1.000000" stroke="none" 
	d="
M344.099121,293.998535 
	C344.099609,289.839539 344.124115,286.179749 344.088776,282.520508 
	C344.049988,278.503845 344.970123,274.212097 340.388184,271.311127 
	C343.807098,268.875336 347.077179,268.480652 350.529053,268.657196 
	C352.097687,271.464996 350.491516,274.009064 350.429810,276.578827 
	C350.174194,287.220734 349.949615,297.863373 349.731323,308.506134 
	C349.691742,310.435944 350.006592,312.195892 352.290649,312.762238 
	C353.361176,313.027679 354.131104,313.597015 353.890106,314.844391 
	C353.661377,316.028351 352.736633,316.425751 351.676666,316.436371 
	C348.247559,316.470825 344.817871,316.449249 340.302185,316.449249 
	C345.955841,309.577393 343.625793,301.864838 344.099121,293.998535 
z"/>
<path fill="white" opacity="1.000000" stroke="none" 
	d="
M297.995239,288.786285 
	C296.881683,296.013336 297.620941,302.842834 297.260406,309.632080 
	C296.937897,315.705658 295.052765,321.040527 289.370270,324.257111 
	C288.072357,324.991730 286.602203,325.932068 285.478271,324.116913 
	C284.509430,322.552277 285.849945,321.673065 286.878784,320.876923 
	C290.671448,317.942078 291.624237,313.841034 291.644012,309.376343 
	C291.680054,301.240570 291.528625,293.101318 291.725708,284.970062 
	C291.819031,281.120148 291.468597,277.987823 286.609558,277.919525 
	C288.007935,274.452057 294.128540,273.531097 302.661072,275.619141 
	C297.300873,278.869507 298.345276,283.776520 297.995239,288.786285 
z"/>
<path fill="white" opacity="1.000000" stroke="none" 
	d="
M365.117920,286.277374 
	C368.326111,286.191895 367.510529,288.187592 367.419861,289.745819 
	C367.082153,295.550049 366.678131,301.350769 366.388184,307.157288 
	C366.271210,309.499878 366.168976,311.950195 369.198517,312.798920 
	C370.079529,313.045807 370.661041,313.676788 370.566681,314.615021 
	C370.446228,315.812347 369.540985,316.230560 368.464264,316.301941 
	C367.469757,316.367828 366.458923,316.486206 365.476868,316.380615 
	C363.177185,316.133331 360.542023,318.223206 358.736420,316.531982 
	C356.010040,313.978302 360.097260,312.803284 360.666412,310.801666 
	C362.049072,305.939148 360.550018,292.507782 357.810181,289.206421 
	C359.426117,286.601196 362.318756,287.012299 365.117920,286.277374 
z"/>
<path fill="white" opacity="1.000000" stroke="none" 
	d="
M367.392212,275.853760 
	C366.451324,278.595673 364.753204,279.690582 362.346313,278.753998 
	C360.511719,278.040039 359.523468,276.454865 360.092987,274.380066 
	C360.573425,272.629639 361.818878,271.584473 363.666473,271.498505 
	C366.418610,271.370361 367.492126,272.923889 367.392212,275.853760 
z"/>
</svg>